<svg width="1441" height="1026" viewBox="0 0 1441 1026" fill="none" xmlns="http://www.w3.org/2000/svg">
<rect x="0.5" y="0.479477" width="1440" height="1025" fill="white"/>
<g opacity="0.15">
<path d="M1126.39 528.867C1111.7 515.419 1091.31 503.54 1065.65 494.086C1009.1 473.222 939.53 464.002 883.045 443.044C833.158 424.535 793.179 399.172 754.948 374.805C708.992 345.506 643.449 323.294 567.583 333.1C494.132 342.589 451.187 375.215 438.865 411.637C427.554 445.059 443.072 476.935 480.614 504.77C518.685 532.991 571.744 555.355 615.792 580.987C659.932 606.666 700.302 634.372 727.567 665.732C762.833 706.313 796.283 756.007 884.861 773.451C928.978 782.132 978.842 778.723 1015.74 763.505C1066.75 742.477 1087.65 710.718 1109.4 680.4C1143.54 632.837 1178.21 576.301 1126.39 528.867Z" stroke="#FAEFE6" stroke-miterlimit="10"/>
<path d="M608.595 368.339C543.052 376.176 503.648 404.456 493.004 436.801C490.406 444.662 489.579 452.476 490.406 460.172C492.59 480.931 506.614 501.034 531.029 519.368C563.582 543.653 608.779 563.088 646.574 585.194C674.414 601.489 700.622 618.675 722.071 637.278C729.773 643.967 736.877 650.832 743.199 657.908C774.419 692.654 804.305 734.84 880.17 749.788C919.344 757.531 963.415 754.72 996.589 741.341C1041.56 723.113 1060.18 695.653 1078.64 669.26C1082.68 663.472 1086.68 657.521 1090.46 651.465C1113.72 614.364 1128.55 573.104 1089.37 537.549C1076.75 526.045 1059.35 515.865 1037.56 507.7C989.485 489.682 930.471 481.388 882.308 463.359C839.732 447.415 805.5 425.742 772.464 405.065C731.566 379.503 674.115 360.502 608.595 368.339Z" stroke="#FAEFE6" stroke-miterlimit="10"/>
<path d="M649.564 403.589C591.883 409.763 556.066 433.708 547.1 461.976C544.916 468.794 544.387 475.612 545.306 482.372C547.697 500.12 559.974 517.763 581.377 533.988C608.275 554.395 645.771 570.831 677.312 589.423C700.532 603.106 722.487 617.492 740.694 632.967C747.246 638.532 753.315 644.237 758.787 650.094C785.984 679.018 812.261 713.671 875.413 726.147C909.667 732.942 947.991 730.775 977.371 719.2C1016.36 703.83 1032.66 680.623 1047.79 658.142C1051.1 653.199 1054.32 648.114 1057.33 642.948C1075.67 611.494 1086.04 576.548 1052.27 546.253C1041.72 536.706 1027.3 528.212 1009.37 521.336C969.785 506.165 921.3 498.796 881.459 483.708C846.193 470.329 817.663 452.358 789.846 435.36C754.097 413.5 704.716 397.697 649.564 403.589Z" stroke="#FAEFE6" stroke-miterlimit="10"/>
<path d="M690.554 438.839C640.713 443.314 608.504 462.972 601.217 487.151C599.469 492.927 599.193 498.749 600.228 504.571C602.826 519.309 613.424 534.479 631.724 548.596C653.081 565.079 682.76 578.563 708.049 593.651C726.647 604.734 744.372 616.308 759.338 628.655C764.741 633.095 769.753 637.641 774.373 642.292C797.409 665.417 820.238 692.513 870.677 702.506C900.011 708.352 932.541 706.806 958.175 697.047C991.165 684.5 1005.14 665.581 1016.98 647.024C1019.58 642.924 1022.02 638.707 1024.25 634.419C1037.76 608.623 1043.44 580.015 1015.23 554.934C1006.71 547.342 995.326 540.536 981.233 534.948C950.128 522.624 912.196 516.181 880.677 504.021C852.722 493.22 829.893 478.963 807.294 465.631C776.58 447.508 735.291 434.833 690.554 438.839Z" stroke="#FAEFE6" stroke-miterlimit="10"/>
<path d="M731.52 474.1C689.449 476.818 660.919 492.235 655.333 512.338C653.999 517.071 654 521.897 655.149 526.782C657.908 538.509 666.897 551.196 682.093 563.227C697.932 575.786 719.773 586.329 738.785 597.892C752.739 606.373 766.234 615.148 777.982 624.356C782.212 627.683 786.212 631.056 789.959 634.489C808.926 651.792 828.191 671.356 865.94 678.865C890.332 683.762 917.068 682.825 938.977 674.905C965.921 665.159 977.646 650.538 986.152 635.906C988.037 632.65 989.692 629.311 991.164 625.902C999.877 605.764 1000.93 583.459 978.174 563.637C971.691 558.002 963.323 552.871 953.093 548.584C930.448 539.095 903.091 533.6 879.894 524.357C859.25 516.122 842.054 505.59 824.766 495.913C799.04 481.528 765.797 471.886 731.52 474.1Z" stroke="#FAEFE6" stroke-miterlimit="10"/>
<path d="M772.512 509.35C738.143 510.158 713.36 521.486 709.452 537.512C708.532 541.203 708.785 545.033 710.073 548.981C712.923 557.697 720.418 567.877 732.464 577.835C742.856 586.445 756.764 594.06 769.546 602.108C778.88 607.977 788.122 613.952 796.628 620.032C799.709 622.234 802.674 624.46 805.571 626.674C820.514 638.155 836.193 650.198 861.229 655.224C880.701 659.172 901.621 658.832 919.806 652.763C940.657 645.805 950.175 635.507 955.371 624.788C956.52 622.375 957.417 619.903 958.106 617.385C962.061 602.928 958.52 586.902 941.14 572.341C936.749 568.651 931.347 565.218 924.955 562.231C910.794 555.588 893.989 551.02 879.091 544.717C865.758 539.047 854.102 532.288 842.193 526.219C821.388 515.594 796.237 508.787 772.512 509.35Z" stroke="#FAEFE6" stroke-miterlimit="10"/>
<path d="M813.503 544.601C781.019 542.61 756.742 554.641 764.995 571.182C767.846 576.899 774.122 584.514 782.835 592.457C791.548 600.399 802.698 608.682 815.296 615.722C827.894 622.763 841.964 628.574 856.516 631.573C871.069 634.572 886.104 634.771 900.633 630.6C918.749 625.399 925.669 617.632 925.025 608.846C924.381 600.06 916.197 590.266 904.082 581.023C891.966 571.78 875.942 563.076 859.643 556.48C843.32 549.897 826.722 545.41 813.503 544.601Z" stroke="#FAEFE6" stroke-miterlimit="10"/>
<path d="M346.906 511.214C388.218 529.009 431.14 545.82 475.509 561.576C519.879 577.333 565.674 590.582 603.561 610.556C719.198 671.497 782.258 799.447 613.309 854.437C507.051 889.019 376.954 859.041 265.064 882.166C216.878 892.124 165.496 910.879 113.31 894.08C93.263 887.625 80.7338 876.555 71.8138 865.355C29.9959 812.896 45.6978 749.764 40.893 694.201C35.9042 636.575 30.8925 576.689 63.6296 520.762C75.4232 500.6 97.723 481.306 132.299 469.814C214.234 442.565 278.512 481.329 336.423 506.657C339.894 508.18 343.389 509.703 346.906 511.214Z" stroke="#FAEFE6" stroke-miterlimit="10"/>
<path d="M165.425 504.501C234.279 482.36 288.879 514.072 337.479 535.569C340.398 536.857 343.318 538.146 346.26 539.423C381.595 554.98 417.367 570.081 455.024 584.08C492.681 598.091 532.131 609.794 565.35 626.781C575.949 632.193 586.11 638.18 595.628 644.611C676.827 699.753 715.403 791.41 588.455 836.337C497.164 868.647 378.377 840.777 285.246 856.217C245.429 862.813 203.909 877.152 161.425 862.672C145.056 857.049 134.711 847.736 127.171 838.329C114.871 822.97 108.043 806.616 103.836 789.946C95.9968 758.738 98.1578 726.498 92.8012 696.578C84.9158 652.401 78.088 605.331 98.7095 560.826C100.687 556.538 102.94 552.274 105.445 548.033C115.814 530.649 135.401 514.154 165.425 504.501Z" stroke="#FAEFE6" stroke-miterlimit="10"/>
<path d="M198.555 539.189C254.282 522.12 299.249 546.827 338.561 564.47C340.906 565.524 343.274 566.578 345.619 567.633C375.069 580.906 403.622 594.354 434.52 606.585C465.463 618.862 498.568 628.995 527.121 643.018C536.294 647.505 545.168 652.39 553.49 657.638C624.045 702.096 666.185 777.774 563.583 818.238C487.28 848.333 380.287 822.478 305.411 830.257C274.122 833.502 242.189 843.495 209.498 831.241C196.762 826.473 188.624 818.882 182.509 811.279C172.485 798.838 166.393 785.705 161.91 772.432C153.519 747.597 152.185 722.527 144.737 698.921C133.426 663.086 124.414 623.419 141.587 586.025C143.243 582.429 145.128 578.844 147.289 575.294C156.209 560.709 173.06 547.003 198.555 539.189Z" stroke="#FAEFE6" stroke-miterlimit="10"/>
<path d="M231.683 573.888C274.213 561.846 309.64 579.594 339.642 593.382C341.435 594.202 343.228 595.022 344.998 595.854C368.516 606.878 389.874 618.628 414.036 629.101C438.289 639.632 465.026 648.219 488.912 659.267C496.637 662.816 504.223 666.624 511.373 670.689C571.1 704.521 617.125 764.337 538.731 800.173C477.51 828.16 383.207 804.332 325.595 804.332C303.18 804.332 280.535 809.803 257.615 799.857C248.557 795.921 242.603 790.075 237.867 784.264C230.12 774.74 224.763 764.818 220.004 754.954C211.084 736.503 206.027 718.556 196.67 701.311C181.704 673.746 170.761 641.554 184.485 611.259C185.796 608.354 187.359 605.448 189.152 602.578C196.601 590.758 210.693 579.828 231.683 573.888Z" stroke="#FAEFE6" stroke-miterlimit="10"/>
<path d="M264.813 608.576C294.009 601.442 320.011 612.349 340.724 622.283C341.943 622.869 343.184 623.454 344.379 624.052C361.92 632.85 376.128 642.889 393.554 651.594C411.095 660.38 431.487 667.42 450.706 675.48C457.005 678.104 463.258 680.834 469.281 683.692C518.088 706.946 568.435 751.076 513.904 782.051C468.017 808.105 387.485 787.111 345.805 778.36C332.678 775.607 318.93 776.041 305.734 768.414C300.354 765.298 296.561 761.222 293.228 757.203C287.756 750.584 283.135 743.883 278.101 737.44C268.629 725.362 259.456 714.549 248.605 703.655C229.363 684.337 217.086 659.653 227.363 636.458C228.351 634.244 229.547 632.018 230.995 629.839C236.995 620.807 248.26 612.618 264.813 608.576Z" stroke="#FAEFE6" stroke-miterlimit="10"/>
<path d="M427.164 696.743C407.646 690.124 387.53 683.516 373.07 674.109C362.38 667.162 355.161 658.915 343.735 652.273C332.333 645.63 314.47 640.628 297.94 643.276C282.767 645.701 273.663 653.772 270.284 661.703C263.433 677.8 275.595 695.594 300.561 706.056C312.148 710.906 326.194 714.28 336.218 719.973C351.943 728.923 354.885 741.857 366.012 752.447C387.002 772.432 459.304 788.376 489.075 763.998C520.571 738.143 464.844 709.535 427.164 696.743Z" stroke="#FAEFE6" stroke-miterlimit="10"/>
<path d="M800.512 186.277C775.729 234.331 702.783 275.79 610.136 291.289C581.1 296.151 550.524 298.564 522.247 304.433C475.555 314.133 437.324 333.603 417.07 357.068C398.701 378.319 405.161 402.85 386.149 423.972C368.447 443.653 330.974 455.087 288.375 453.154C246.189 451.232 208.9 439.049 171.657 429.806C136.851 421.172 100.251 412.55 75.7446 396.641C37.835 372.016 31.6508 339.355 22.7309 309.459C8.45437 261.65 0.5 213.162 0.5 164.78C0.5 139.101 4.31626 112.578 27.3058 89.7226C60.2957 56.9209 127.632 36.783 195.497 24.0138C322.1 0.185703 468.612 -4.00823 600.02 11.9709C672.138 20.7336 751.728 40.4029 783.293 76.766C813.363 111.383 819.455 149.539 800.512 186.277Z" stroke="#FAEFE6" stroke-miterlimit="10"/>
<path d="M730.576 88.1538C741.542 100.185 749.267 112.802 753.428 125.688C759.796 145.346 758.094 165.531 748.278 185.259C726.99 228.041 662.987 265.189 582.064 279.938C556.683 284.589 529.993 287.155 505.256 292.602C464.748 301.505 430.908 318.937 412.309 339.837C395.619 358.651 400.056 380.265 382.653 398.798C366.583 416.007 333.57 426.07 296.166 424.488C258.992 422.942 226.094 412.328 193.311 403.976C162.942 396.255 131.079 388.477 109.699 374.255C76.5707 352.243 71.536 323.471 64.5472 297.159C53.3743 255.068 48.9833 212.625 50.4087 170.252C51.1673 147.911 54.8456 124.81 75.0074 104.848C103.951 76.1812 162.207 58.3277 220.761 46.7651C264.901 38.0492 311.799 32.0746 359.434 28.853C429.689 24.2022 501.899 25.3854 569.879 32.9884C606.042 36.9832 644.434 44.1878 676.022 55.6567C699.126 64.0914 718.392 74.8223 730.576 88.1538Z" stroke="#FAEFE6" stroke-miterlimit="10"/>
<path d="M677.84 99.5633C687.863 109.884 695.151 120.838 699.151 132.096C705.312 149.305 704.231 166.971 696.024 184.274C678.23 221.785 623.148 254.633 553.949 268.609C532.201 273.049 509.418 275.779 488.222 280.781C453.899 288.888 424.449 304.281 407.506 322.603C392.494 338.981 394.839 357.654 379.114 373.633C364.608 388.359 336.101 397.051 303.938 395.833C271.776 394.65 243.269 385.618 214.923 378.155C189.083 371.349 161.932 364.402 143.655 351.879C115.332 332.479 111.401 307.608 106.367 284.858C98.2972 248.506 97.4466 212.085 100.343 175.734C101.838 156.72 105.401 137.051 122.735 119.982C147.656 95.4514 196.784 79.894 246.074 69.5264C283.225 61.7242 322.56 56.1245 362.539 52.9381C421.369 48.2404 482.107 48.4278 539.788 54.0276C570.479 57.0031 603.308 62.6497 630.504 72.2325C650.344 79.2029 666.874 88.2702 677.84 99.5633Z" stroke="#FAEFE6" stroke-miterlimit="10"/>
<path d="M625.128 110.961C634.232 119.584 641.083 128.873 644.899 138.48C650.853 153.24 650.393 168.388 643.818 183.254C629.519 215.482 583.31 243.949 525.882 257.257C507.766 261.451 488.892 264.368 471.259 268.948C443.12 276.247 417.969 289.59 402.773 305.37C389.348 319.299 389.738 335.067 375.646 348.469C362.749 360.723 338.725 368.01 311.758 367.178C284.607 366.334 260.491 358.919 236.605 352.323C215.248 346.431 192.833 340.316 177.637 329.491C154.119 312.704 151.291 291.722 148.211 272.557C143.268 241.934 145.935 211.569 150.28 181.216C152.51 165.541 155.958 149.304 170.464 135.118C191.339 114.722 231.364 101.449 271.388 92.2996C301.551 85.4113 333.345 80.2216 365.645 77.0234C413.073 72.3374 462.362 71.4237 509.675 75.0553C534.94 77 562.114 81.1353 584.965 88.7851C601.518 94.338 615.38 101.73 625.128 110.961Z" stroke="#FAEFE6" stroke-miterlimit="10"/>
<path d="M572.386 122.361C580.594 129.284 586.962 136.899 590.617 144.877C596.364 157.178 596.525 169.818 591.56 182.247C580.778 209.203 543.443 233.348 497.762 245.906C483.279 249.889 468.336 252.947 454.22 257.106C432.265 263.572 411.506 274.912 397.965 288.127C386.194 299.619 384.585 312.459 372.102 323.283C360.837 333.065 341.273 338.969 319.525 338.501C297.386 338.02 277.661 332.198 258.212 326.481C241.315 321.514 223.659 316.231 211.566 307.081C192.853 292.918 191.128 275.814 190.002 260.234C188.163 235.339 194.347 211.043 200.163 186.676C203.106 174.352 206.462 161.524 218.164 150.242C235.015 133.982 265.936 123.005 296.65 115.051C319.801 109.076 344.055 104.297 368.699 101.098C404.701 96.4125 442.565 94.3975 479.532 96.0845C499.372 96.9865 520.913 99.6107 539.396 105.339C552.707 109.463 563.903 115.191 572.386 122.361Z" stroke="#FAEFE6" stroke-miterlimit="10"/>
<path d="M519.65 133.759C526.983 138.984 532.823 144.935 536.34 151.261C541.858 161.113 542.685 171.235 539.306 181.239C532.018 202.924 503.603 222.757 469.671 234.566C458.819 238.338 447.785 241.524 437.209 245.273C421.416 250.885 405.047 260.245 393.161 270.894C383.069 279.937 379.437 289.86 368.563 298.119C358.93 305.429 343.803 309.951 327.274 309.846C310.146 309.74 294.812 305.511 279.823 300.649C267.409 296.619 254.466 292.144 245.477 284.694C231.545 273.143 230.948 259.94 231.775 247.932C233.04 228.778 242.649 210.55 250.029 192.158C253.638 183.184 256.949 173.777 265.823 165.377C278.628 153.253 300.445 144.56 321.894 137.824C338.056 132.763 354.746 128.405 371.735 125.184C396.311 120.521 422.795 117.382 449.371 117.112C463.808 116.972 479.648 118.084 493.832 121.904C503.879 124.598 512.477 128.64 519.65 133.759Z" stroke="#FAEFE6" stroke-miterlimit="10"/>
<path d="M466.936 145.158C473.488 148.661 478.73 152.972 482.086 157.658C487.397 165.062 488.845 172.665 487.098 180.232C483.305 196.645 463.833 212.202 441.602 223.226C434.383 226.799 427.21 230.068 420.222 233.453C410.543 238.139 398.68 245.59 388.404 253.673C380.013 260.292 374.38 267.286 365.07 272.956C357.115 277.806 346.402 280.934 335.068 281.18C322.93 281.437 311.964 278.848 301.481 274.818C293.503 271.749 285.342 268.059 279.457 262.307C270.33 253.368 270.836 244.055 273.618 235.632C278.009 222.207 290.791 210.07 299.986 197.652C304.148 192.041 307.527 186.031 313.573 180.525C322.355 172.536 335.068 166.128 347.23 160.598C356.38 156.451 365.507 152.55 374.863 149.282C387.967 144.701 403.14 140.32 419.302 138.153C428.337 136.946 438.475 136.594 448.338 138.469C455.028 139.734 461.143 142.065 466.936 145.158Z" stroke="#FAEFE6" stroke-miterlimit="10"/>
<path d="M402.793 155.021C387.941 155.407 381.067 166.349 377.941 173.354C372.998 184.519 365.573 194.746 349.894 203.122C330.858 213.302 302.213 223.541 313.409 239.918C324.49 256.108 343.572 254.785 361.549 247.791C379.55 240.785 396.47 228.122 403.206 221.62C420.54 204.914 447.829 183.265 427.805 164.065C424.633 161.019 420.15 158.219 414.172 156.567C409.942 155.384 406.149 154.927 402.793 155.021Z" stroke="#FAEFE6" stroke-miterlimit="10"/>
<path d="M953.373 191.561C874.358 195.111 805.205 226.448 778.951 263.831C746.766 309.683 804.516 356.039 868.105 387.048C907.624 406.331 956.844 421.595 1008.02 431.459C1060.62 441.592 1162.23 467.529 1212.67 443.361C1261.27 420.06 1227.75 368.726 1214.33 340.962C1184.12 278.591 1109.52 185.704 955.856 191.468C955.028 191.491 954.2 191.526 953.373 191.561Z" stroke="#FAEFE6" stroke-miterlimit="10"/>
<path d="M822.859 271.364C813.502 283.336 812.077 295.906 816.399 307.973C825.756 334.202 860.033 358.663 896.862 377.137C929.3 393.409 970.383 406.542 1012.98 415.187C1057.49 424.231 1141.13 445.213 1183.43 423.997C1222.85 404.222 1196.35 362.271 1185.13 339.076C1160 287.202 1097.28 211.266 971.371 214.535C970.681 214.558 970.015 214.57 969.325 214.593C923.07 216.069 880.586 228.803 851.366 246.833C839.388 254.225 829.779 262.531 822.859 271.364Z" stroke="#FAEFE6" stroke-miterlimit="10"/>
<path d="M866.774 278.884C858.153 288.385 856.59 299.034 860.107 309.109C867.763 331.027 895.488 351.493 925.604 367.203C950.985 380.452 983.906 391.476 1017.93 398.903C1054.35 406.858 1120 422.895 1154.17 404.632C1184.47 388.419 1164.95 355.816 1155.91 337.189C1135.87 295.824 1085.01 236.804 986.871 237.613C986.342 237.613 985.791 237.624 985.262 237.624C948.778 238.046 914.937 247.031 890.821 260.363C880.936 265.834 872.935 272.101 866.774 278.884Z" stroke="#FAEFE6" stroke-miterlimit="10"/>
<path d="M910.682 286.406C902.727 293.458 901.072 302.151 903.808 310.245C909.785 327.853 930.981 344.301 954.339 357.281C972.684 367.473 997.421 376.446 1022.85 382.632C1051.17 389.52 1098.92 400.649 1124.87 385.268C1146.14 372.674 1133.5 349.362 1126.67 335.304C1111.7 304.435 1072.67 262.308 1002.32 260.692C1001.93 260.68 1001.54 260.668 1001.15 260.656C974.455 260.035 949.235 265.249 930.246 273.894C922.498 277.444 916.038 281.661 910.682 286.406Z" stroke="#FAEFE6" stroke-miterlimit="10"/>
<path d="M954.589 293.927C947.164 298.508 945.554 305.279 947.509 311.382C951.785 324.667 966.567 337.061 983.073 347.347C994.476 354.446 1010.89 361.452 1027.79 366.349C1048 372.206 1078 378.497 1095.61 365.903C1108.02 357.035 1102.07 342.907 1097.45 333.418C1087.54 313.046 1060.27 287.695 1017.81 283.759C1017.56 283.735 1017.3 283.712 1017.07 283.677C1000.18 282.001 983.556 283.466 969.693 287.414C964.038 289.042 959.003 291.209 954.589 293.927Z" stroke="#FAEFE6" stroke-miterlimit="10"/>
<path d="M1033.35 306.836C1026.16 304.059 1018.06 301.705 1009.17 300.955C1005.58 300.65 1001.76 300.627 998.499 301.458C991.166 303.321 990.039 308.405 991.235 312.541C993.81 321.514 1002.57 329.703 1011.86 337.447C1023.17 346.877 1052.13 363.817 1066.39 346.561C1078.73 331.554 1055.61 315.411 1033.35 306.836Z" stroke="#FAEFE6" stroke-miterlimit="10"/>
<path d="M1324 698.065C1300.58 689.666 1273.15 685.706 1242.05 690.017C1193.08 696.8 1159.47 718.718 1135.19 740.098C1097.65 773.169 1081.63 814.417 991.347 816.221C945.828 817.135 904.952 804.589 860.95 800.992C818.282 797.501 778.878 806.24 751.543 823.262C680.713 867.369 658.735 939.942 763.797 974.935C822.029 994.335 892.561 999.056 958.564 1007.77C1031.67 1017.42 1106.62 1024.72 1182.41 1025.16C1261.08 1025.6 1339.82 1014.39 1388.31 980.769C1430.54 951.482 1438.56 912.459 1440.26 877.256C1442.1 838.632 1433.41 799.059 1408.28 762.403C1393.57 740.942 1364.88 712.72 1324 698.065Z" stroke="#FAEFE6" stroke-miterlimit="10"/>
<path d="M1301.38 726.192C1280.46 718.894 1256.18 715.52 1228.85 719.292C1185.58 725.267 1155.72 744.456 1133.86 763.223C1105.21 787.871 1089.95 817.65 1037.12 827.034C1027.83 828.686 1017.42 829.705 1005.58 829.951C972.402 830.677 941.895 823.437 910.377 819.185C903.733 818.283 897.02 817.521 890.238 816.994C852.558 814.054 817.66 821.668 793.383 836.617C731.679 874.854 712.529 937.787 803.315 968.398C818.832 973.634 835.431 977.652 852.627 980.932C891.985 988.442 934.516 992.144 975.253 997.439C1039.78 1005.85 1106.04 1012.13 1173.01 1012.38C1242.48 1012.63 1312 1002.75 1355.29 973.482C1393.2 947.932 1401.5 913.865 1403.85 882.879C1406.31 848.976 1398.7 814.218 1376.26 782.178C1363.04 763.387 1337.54 738.891 1301.38 726.192Z" stroke="#FAEFE6" stroke-miterlimit="10"/>
<path d="M1278.76 754.331C1260.37 748.11 1239.22 745.334 1215.63 748.579C1178.07 753.733 1151.93 770.205 1132.5 786.359C1107.17 807.516 1093 833.02 1047.14 841.15C1039.05 842.579 1029.99 843.469 1019.76 843.715C990.977 844.418 964.401 838.362 936.975 834.847C931.182 834.098 925.365 833.477 919.457 833.043C886.743 830.642 856.305 837.108 835.154 850.018C782.347 882.281 766.278 935.701 842.787 961.895C856.167 966.476 870.581 969.99 885.478 972.837C919.503 979.339 956.378 982.607 991.874 987.141C1047.81 994.31 1105.4 999.57 1163.56 999.641C1223.86 999.711 1284.14 991.147 1322.23 966.23C1355.8 944.417 1364.4 915.305 1367.41 888.525C1370.49 859.355 1363.94 829.388 1344.21 801.964C1332.51 785.832 1310.28 765.003 1278.76 754.331Z" stroke="#FAEFE6" stroke-miterlimit="10"/>
<path d="M1256.12 782.471C1240.23 777.34 1222.26 775.161 1202.39 777.867C1170.53 782.214 1148.14 795.955 1131.1 809.498C1109.08 827.164 1096 848.379 1057.12 855.256C1050.23 856.474 1042.53 857.236 1033.9 857.47C1009.54 858.138 986.845 853.276 963.533 850.488C958.613 849.902 953.648 849.399 948.636 849.07C920.911 847.22 894.933 852.55 876.909 863.41C833.114 889.768 819.987 933.605 882.219 955.395C893.461 959.331 905.669 962.33 918.313 964.743C947.004 970.238 978.246 973.084 1008.5 976.845C1055.84 982.784 1104.78 987.013 1154.09 986.896C1205.22 986.779 1256.14 979.492 1289.16 958.98C1318.31 940.857 1327.39 916.759 1330.93 894.185C1334.77 869.747 1329.16 844.584 1312.12 821.763C1301.98 808.279 1282.97 791.152 1256.12 782.471Z" stroke="#FAEFE6" stroke-miterlimit="10"/>
<path d="M1233.49 810.609C1220.11 806.568 1205.29 804.974 1189.19 807.153C1163.05 810.68 1144.32 821.68 1129.77 832.633C1110.96 846.785 1099.07 863.748 1067.19 869.359C1061.46 870.367 1055.16 871 1048.13 871.222C1028.15 871.866 1009.39 868.188 990.196 866.126C986.15 865.693 982.058 865.329 977.919 865.095C955.183 863.783 933.688 867.977 918.745 876.787C884.007 897.241 873.754 931.519 921.756 948.868C930.86 952.16 940.86 954.644 951.229 956.635C974.609 961.122 1000.17 963.535 1025.19 966.534C1063.95 971.232 1104.2 974.442 1144.69 974.137C1186.64 973.833 1228.3 967.858 1256.14 951.703C1280.92 937.306 1290.35 918.187 1294.51 899.818C1298.99 880.114 1294.51 859.718 1280.09 841.548C1271.5 830.724 1255.66 817.298 1233.49 810.609Z" stroke="#FAEFE6" stroke-miterlimit="10"/>
<path d="M1210.87 838.75C1200 835.809 1188.32 834.802 1175.98 836.442C1155.54 839.16 1140.55 847.43 1128.41 855.771C1112.92 866.432 1102.13 879.108 1077.21 883.465C1072.68 884.262 1067.74 884.766 1062.32 884.977C1046.75 885.598 1031.9 883.102 1016.8 881.779C1013.6 881.497 1010.41 881.275 1007.16 881.134C989.416 880.373 972.427 883.43 960.542 890.178C934.885 904.74 927.414 929.493 961.231 942.368C968.174 945.015 976.013 946.984 984.106 948.542C1002.15 952.033 1022.06 954.013 1041.83 956.238C1071.99 959.694 1103.61 961.885 1135.26 961.405C1168.02 960.913 1200.46 956.262 1223.08 944.465C1243.54 933.804 1253.24 919.641 1258.07 905.489C1263.18 890.518 1259.77 874.925 1248.05 861.359C1240.97 853.171 1228.3 843.471 1210.87 838.75Z" stroke="#FAEFE6" stroke-miterlimit="10"/>
<path d="M1188.25 866.889C1179.86 865.062 1171.35 864.616 1162.78 865.741C1148.04 867.639 1136.8 873.192 1127.08 878.92C1114.89 886.102 1105.19 894.478 1087.26 897.594C1083.92 898.168 1080.36 898.555 1076.52 898.754C1065.35 899.339 1054.43 898.051 1043.44 897.442C1041.12 897.313 1038.77 897.219 1036.43 897.184C1023.67 896.961 1011.21 898.906 1002.38 903.58C985.92 912.284 981.046 927.572 1000.77 935.866C1005.58 937.881 1011.21 939.311 1017.02 940.447C1029.74 942.93 1044.01 944.477 1058.52 945.941C1080.08 948.155 1103.03 949.327 1125.86 948.659C1149.44 947.98 1172.69 944.664 1190.07 937.202C1206.21 930.278 1216.14 921.082 1221.65 911.136C1227.33 900.897 1225.03 890.096 1216.02 881.158C1210.41 875.617 1200.92 869.654 1188.25 866.889Z" stroke="#FAEFE6" stroke-miterlimit="10"/>
<path d="M1097.26 911.697C1088.57 913.162 1079.16 912.916 1070.02 913.08C1060.87 913.244 1051.19 913.97 1044.13 916.957C1037.09 919.945 1034.15 925.849 1040.2 929.352C1042.7 930.804 1046.31 931.636 1049.83 932.351C1088.66 940.118 1161.7 937.95 1185.17 916.793C1195.35 907.609 1185.45 897.253 1165.58 895.039C1135.28 891.653 1122.27 907.468 1097.26 911.697Z" stroke="#FAEFE6" stroke-miterlimit="10"/>
<path d="M749.266 313.642C746.806 308.382 742.898 303.262 738.438 298.623C733.656 293.656 726.254 289.052 716.092 287.131C695.241 283.195 673.286 291.746 657.883 297.908C654.756 299.15 651.63 300.474 649.607 302.208C643.446 307.468 652.986 312.517 660.688 315.551C678.091 322.404 696.873 328.074 714.184 334.963C751.542 349.852 755.91 327.91 749.266 313.642Z" stroke="#FAEFE6" stroke-miterlimit="10"/>
<path d="M708.554 306.133C704.623 305.102 699.496 305.102 695.979 306.472C693.979 307.246 692.553 308.546 693.174 309.776C693.887 311.205 696.853 311.943 699.243 312.763C703.887 314.345 712.692 321.292 717.589 316.547C721.152 313.068 714.646 307.738 708.554 306.133Z" stroke="#FAEFE6" stroke-miterlimit="10"/>
<path d="M1353.32 390.315C1320.01 412.749 1296.03 440.08 1250.37 457.055C1228.28 465.267 1204.74 467.517 1179.72 472.12C1157.7 476.174 1139.15 483.074 1143.65 496.335C1150.3 515.876 1176.41 532.042 1186.87 551.044C1197.13 569.682 1198.14 589.492 1189.82 608.365C1183.61 622.411 1168.85 642.022 1190.87 654.463C1201.24 660.32 1217.98 661.913 1233.45 662.195C1287.38 663.179 1323.04 673.886 1367.78 688.471C1380.24 692.536 1394.84 696.402 1409.2 694.575" stroke="#FAEFE6" stroke-miterlimit="10"/>
<path d="M1355.75 423.878C1328 442.505 1306.33 464.341 1267.36 477.274C1246.35 484.256 1222.41 486.143 1200.46 491.543C1183.7 495.667 1169.06 501.067 1172.37 511.728C1177.22 527.555 1197.36 540.921 1206.09 556.408C1214.62 571.532 1216.34 587.488 1211.49 602.682C1207.84 614.163 1198.16 629.709 1215.65 639.748C1224.57 644.868 1238.21 646.695 1250.99 647.445C1295.59 650.081 1326.92 658.832 1366.17 669.855C1377.04 672.925 1389.59 675.795 1402.05 674.377" stroke="#FAEFE6" stroke-miterlimit="10"/>
<path d="M1358.17 457.442C1335.99 472.262 1316.28 488.44 1284.35 497.496C1264.26 503.189 1240.28 504.548 1221.2 510.968C1209.61 514.869 1198.97 519.063 1201.08 527.123C1204.16 539.224 1218.3 549.814 1225.34 561.764C1232.14 573.361 1234.62 585.498 1233.22 596.978C1232.14 605.894 1227.5 617.386 1240.49 625.012C1247.94 629.394 1258.51 631.467 1268.58 632.674C1303.85 636.973 1330.88 643.709 1364.63 651.207C1373.92 653.269 1384.4 655.166 1394.98 654.147" stroke="#FAEFE6" stroke-miterlimit="10"/>
<path d="M1360.6 490.993C1344 501.993 1325.91 512.244 1301.33 517.691C1282 521.979 1257.88 522.506 1241.91 530.367C1235.17 533.682 1228.87 537.033 1229.75 542.492C1231.08 550.88 1239.19 558.67 1244.53 567.105C1249.61 575.188 1252.96 583.529 1254.87 591.261C1256.44 597.646 1256.71 605.061 1265.24 610.274C1271.22 613.918 1278.74 616.225 1286.09 617.901C1312.02 623.852 1334.74 628.631 1362.99 632.556C1370.67 633.622 1379.13 634.536 1387.8 633.903" stroke="#FAEFE6" stroke-miterlimit="10"/>
<path d="M1363.04 524.556C1352 531.749 1335.31 535.685 1318.32 537.911C1299.5 540.382 1273.08 539.668 1262.64 549.79C1248.23 563.789 1273.79 584.805 1290.05 595.56C1314.51 611.75 1341.45 615.03 1380.69 613.694" stroke="#FAEFE6" stroke-miterlimit="10"/>
<path d="M662.412 971.305C649.055 960.539 639.929 948.402 635.744 935.844C632.181 925.148 631.583 913.433 618.226 904.975C604.87 896.517 581.627 893.623 560.385 894.479C539.143 895.334 518.981 899.34 498.52 902.398C458.978 908.314 417.436 910.727 376.308 909.521C350.491 908.759 324.811 906.58 298.948 906.732C250.831 907.002 203.036 915.589 165.218 930.76C153.126 935.61 141.539 941.537 137.769 949.14C133.999 956.743 141.079 966.186 155.931 968.247" stroke="#FAEFE6" stroke-miterlimit="10"/>
<path d="M581.148 957.352C584.642 947.945 587.355 937.004 574.757 929.904C559.285 921.189 531.836 923.918 509.421 926.66C464.752 932.119 418.75 934.778 372.817 934.555C325.229 934.321 271.985 931.908 235.915 947.711C218.305 955.42 208.005 969.934 222.972 978.966" stroke="#FAEFE6" stroke-miterlimit="10"/>
<path d="M1361.59 349.126C1345.87 360.396 1310.37 359.81 1288.81 351.399C1267.25 342.988 1256.51 329.375 1247.87 316.266C1228.95 287.611 1215.2 257.856 1188.07 230.958C1160.94 204.073 1117.49 179.612 1060.29 171.622C1026.32 166.878 989.648 168.19 956.336 162.356C922.219 156.381 894.08 143.143 875.551 127.375C857.021 111.607 847.504 93.4254 843.273 75.1736C840.055 61.2798 839.848 46.9759 847.458 33.5272C855.067 20.0785 871.206 7.50841 894.977 0.479477" stroke="#FAEFE6" stroke-miterlimit="10"/>
<path d="M950.498 6.82909C929.532 13.0731 915.233 24.1554 908.382 36.0343C901.554 47.9015 901.577 60.5536 904.359 72.8425C908.014 88.9856 916.497 105.058 933.026 118.964C949.648 132.928 974.775 144.549 1005.05 149.926C1023.47 153.195 1042.99 154.085 1062.34 155.362C1074.07 156.135 1085.72 157.049 1097.06 158.724C1147.56 166.163 1185.93 187.93 1209.82 211.875C1211.43 213.491 1212.99 215.132 1214.51 216.772C1233.78 237.718 1245.15 260.527 1260.19 282.094C1261.41 283.839 1262.63 285.562 1263.89 287.284C1271.48 297.686 1280.63 308.242 1296.93 315.259C1298.35 315.868 1299.82 316.465 1301.36 317.016C1320.49 323.951 1351.41 324.092 1365.37 314.076" stroke="#FAEFE6" stroke-miterlimit="10"/>
<path d="M1006.01 13.167C987.83 18.6261 975.37 28.2323 969.324 38.518C963.277 48.8154 963.116 59.804 965.461 70.4879C968.542 84.5224 975.99 98.4982 990.497 110.529C1005.21 122.678 1027.33 132.682 1053.76 137.474C1069.83 140.379 1086.85 141.293 1103.65 142.57C1113.84 143.343 1123.97 144.245 1133.79 145.791C1177.59 152.68 1210.9 171.763 1231.52 192.756C1232.92 194.174 1234.25 195.603 1235.56 197.044C1252.16 215.413 1262.03 235.574 1276.33 253.885C1277.47 255.361 1278.65 256.825 1279.84 258.266C1287.06 267.005 1295.64 275.639 1309.96 281.215C1311.2 281.707 1312.51 282.164 1313.84 282.609C1330.56 288.069 1356.88 287.764 1369.09 279.001" stroke="#FAEFE6" stroke-miterlimit="10"/>
<path d="M1061.53 19.4931C1046.13 24.1791 1035.51 32.2858 1030.25 41.0017C1024.98 49.7293 1024.66 59.0543 1026.57 68.1451C1029.07 80.0826 1035.49 91.938 1047.99 102.107C1060.8 112.451 1079.9 120.839 1102.53 125.033C1116.25 127.575 1130.73 128.524 1145.01 129.789C1153.68 130.562 1162.25 131.452 1170.55 132.882C1207.63 139.219 1235.89 155.608 1253.24 173.673C1254.42 174.891 1255.54 176.121 1256.65 177.363C1270.6 193.166 1278.92 210.668 1292.49 225.722C1293.59 226.94 1294.69 228.124 1295.82 229.307C1302.65 236.394 1310.67 243.095 1323.02 247.219C1324.1 247.582 1325.2 247.922 1326.35 248.238C1340.63 252.221 1362.4 251.471 1372.84 243.974" stroke="#FAEFE6" stroke-miterlimit="10"/>
<path d="M1117.05 25.831C1104.43 29.7321 1095.65 36.351 1091.17 43.4971C1086.68 50.6432 1086.18 58.3164 1087.65 65.8023C1089.58 75.631 1094.91 85.4013 1105.47 93.6837C1116.34 102.224 1132.46 108.995 1151.24 112.592C1162.62 114.77 1174.6 115.743 1186.32 117.008C1193.45 117.781 1200.48 118.66 1207.29 119.96C1237.68 125.747 1260.83 139.442 1274.95 154.566C1275.91 155.585 1276.81 156.616 1277.7 157.659C1288.99 170.885 1295.82 185.739 1308.65 197.524C1309.68 198.473 1310.74 199.399 1311.8 200.301C1318.26 205.737 1325.71 210.516 1336.07 213.187C1336.97 213.422 1337.91 213.644 1338.86 213.843C1350.72 216.362 1367.91 215.167 1376.58 208.911" stroke="#FAEFE6" stroke-miterlimit="10"/>
<path d="M1172.6 32.1689C1162.76 35.2968 1155.81 40.4162 1152.14 45.9925C1148.44 51.5688 1147.77 57.5785 1148.8 63.4594C1150.16 71.1795 1154.46 78.8411 1162.99 85.2608C1171.95 91.9969 1185.08 97.1397 1200 100.15C1209.04 101.966 1218.51 102.974 1227.7 104.227C1233.29 105 1238.78 105.867 1244.09 107.051C1267.77 112.287 1285.87 123.299 1296.72 135.471C1297.45 136.291 1298.17 137.123 1298.83 137.954C1307.48 148.603 1312.76 160.81 1324.86 169.339C1325.82 170.03 1326.83 170.686 1327.85 171.307C1333.94 175.079 1340.81 177.937 1349.2 179.167C1349.94 179.273 1350.67 179.367 1351.43 179.46C1360.88 180.503 1373.48 178.863 1380.4 173.861" stroke="#FAEFE6" stroke-miterlimit="10"/>
<path d="M1228.12 38.4951C1221.06 40.8381 1215.98 44.4814 1213.06 48.4762C1210.14 52.471 1209.29 56.8289 1209.89 61.1048C1210.67 66.7163 1213.96 72.2808 1220.46 76.8262C1227.52 81.7582 1237.64 85.2844 1248.72 87.6977C1255.41 89.1503 1262.35 90.1812 1269.02 91.4347C1273.06 92.2079 1277.04 93.0631 1280.83 94.1174C1297.8 98.8034 1310.81 107.121 1318.42 116.352C1318.93 116.973 1319.43 117.606 1319.89 118.238C1325.89 126.322 1329.66 135.869 1341 141.141C1341.92 141.563 1342.84 141.949 1343.8 142.301C1349.53 144.421 1355.82 145.347 1362.24 145.136C1362.79 145.112 1363.36 145.089 1363.92 145.054C1370.93 144.62 1378.97 142.535 1384.12 138.786" stroke="#FAEFE6" stroke-miterlimit="10"/>
<path d="M1283.64 44.831C1269.45 50.0207 1266.65 61.6185 1277.93 68.4014C1286.21 73.3802 1299.36 75.3132 1310.35 78.6519C1324.86 83.0802 1336.01 90.2965 1341 98.5321C1344.33 104.038 1346.58 110.95 1357.2 112.941C1363.23 114.078 1370.17 113.047 1375.34 111.102C1380.51 109.158 1384.26 106.416 1387.92 103.722" stroke="#FAEFE6" stroke-miterlimit="10"/>
<path d="M853.133 145.17C851.638 144.854 850.167 144.772 848.765 145.018C847.799 145.194 847.133 145.615 846.535 146.037C840.19 150.664 840.718 156.932 838.879 162.274C836.948 167.838 835.431 173.45 833.822 179.038C832.879 182.365 828.787 188.949 835.224 191.444C838.488 192.709 843.063 192.311 847.064 191.842C861.846 190.108 880.214 187.379 883.87 178.722C886.881 171.599 878.628 164.769 872.996 158.548C868.743 153.839 863.179 147.337 853.133 145.17Z" stroke="#FAEFE6" stroke-miterlimit="10"/>
<path d="M1094.99 484.808C1081.58 485.78 1072.53 478.131 1063.61 474.347C1051.38 469.169 1037.4 465.115 1022.89 461.859C1005.95 458.063 988.177 455.333 970.383 452.78C958.406 451.069 941.371 447.672 942.336 439.811C942.934 434.996 963.349 438.804 969.303 440.034C1011.72 448.797 1052.34 459.867 1098.39 464.014C1120.14 465.971 1115.19 483.191 1095.24 484.796C1095.15 484.796 1095.06 484.808 1094.99 484.808Z" stroke="#FAEFE6" stroke-miterlimit="10"/>
<path d="M468.107 520.562C466.475 519.742 464.911 518.922 463.486 518.125C440.29 505.192 425.484 490.501 410.679 474.874C408.725 472.8 406.633 470.703 403.461 469.063C397.897 466.193 389.736 466.134 382.333 466.451C375.252 466.755 368.218 467.294 361.275 468.079C351.504 469.18 340.653 471.383 337.55 476.221C333.917 481.914 342.975 487.444 350.631 491.966C388.632 514.411 429.439 534.924 483.211 547.728C487.211 548.677 491.395 549.544 495.809 549.685C498.039 549.755 500.476 549.603 502.108 548.818C503.994 547.904 504.247 546.405 503.902 545.081C501.396 535.322 481.947 527.532 468.107 520.562Z" stroke="#FAEFE6" stroke-miterlimit="10"/>
<path d="M805.429 768.133C793.681 760.74 783.474 752.833 772.186 745.195C767.312 741.891 758.139 740.497 752.139 743.976C748.507 746.085 747.541 749.061 747.633 751.872C748.047 764.302 749.013 775.091 740.92 787.146C730.506 802.68 716.046 817.581 697.148 830.901C687.723 837.543 677.17 843.787 665.538 849.446C647.123 858.396 603.121 870.392 634.134 885.68C638.433 887.8 644.112 889.311 650.089 889.358C669.423 889.511 676.228 873.941 683.217 867.1C693.585 856.92 703.493 846.611 713.195 836.266C727.081 821.459 738.828 804.601 764.898 794.058C772.278 791.07 780.761 788.716 789.819 787.345C798.785 785.998 811.406 787.497 819.361 785.248C828.809 782.565 820.993 777.106 816.257 774.505C812.464 772.444 808.877 770.312 805.429 768.133Z" stroke="#FAEFE6" stroke-miterlimit="10"/>
</g>
</svg>
